<?xml version="1.0" encoding="UTF-8" standalone="no"?>
<svg
   version="1.1"
   height="132.58536"
   width="313.51758"
   id="svg2"
   sodipodi:docname="btab (1).svg"
   inkscape:version="1.3.1 (91b66b0, 2023-11-16)"
   inkscape:export-filename="btab (2).svg"
   inkscape:export-xdpi="96"
   inkscape:export-ydpi="96"
   xmlns:inkscape="http://www.inkscape.org/namespaces/inkscape"
   xmlns:sodipodi="http://sodipodi.sourceforge.net/DTD/sodipodi-0.dtd"
   xmlns="http://www.w3.org/2000/svg"
   xmlns:svg="http://www.w3.org/2000/svg">
  <sodipodi:namedview
     id="namedview1"
     pagecolor="#ffffff"
     bordercolor="#000000"
     borderopacity="0.25"
     inkscape:showpageshadow="2"
     inkscape:pageopacity="0.0"
     inkscape:pagecheckerboard="0"
     inkscape:deskcolor="#d1d1d1"
     inkscape:zoom="1.4542857"
     inkscape:cx="177.75049"
     inkscape:cy="187.72102"
     inkscape:window-width="1920"
     inkscape:window-height="1027"
     inkscape:window-x="0"
     inkscape:window-y="25"
     inkscape:window-maximized="1"
     inkscape:current-layer="svg2" />
  <defs
     id="defs2" />
  <g
     id="text1"
     style="font-weight:bold;font-size:126px;fill:#99cc00"
     aria-label="B tab"
     transform="translate(-9.2900391,-14.806641)">
    <path
       d="M 9.2900391,14.806641 H 61.461914 q 13.042969,0 19.995117,6.459961 7.013672,6.45996 7.013672,15.996093 0,7.998047 -4.983398,13.719727 -3.322266,3.814453 -9.720703,6.029297 9.720703,2.33789 14.273437,8.05957 4.614258,5.660156 4.614258,14.273438 0,7.013671 -3.260742,12.612304 -3.260743,5.598633 -8.920899,8.859379 -3.506836,2.03027 -10.582031,2.95312 Q 60.477539,105 57.401367,105 H 9.2900391 Z M 37.40625,50.182617 h 12.120117 q 6.521485,0 9.043945,-2.214844 2.583985,-2.276367 2.583985,-6.521484 0,-3.9375 -2.583985,-6.152344 -2.52246,-2.214843 -8.859375,-2.214843 H 37.40625 Z m 0,35.4375 h 14.211914 q 7.198242,0 10.151367,-2.522461 2.953125,-2.583984 2.953125,-6.890625 0,-3.999023 -2.953125,-6.398437 -2.891601,-2.460938 -10.21289,-2.460938 H 37.40625 Z"
       id="path1" />
    <path
       style="fill:#7f7f7f"
       d="m 139.77539,14.806641 v 24.855468 h 13.78125 V 57.93457 h -13.78125 v 23.194336 q 0,4.183594 0.79981,5.53711 1.23046,2.091796 4.30664,2.091796 2.76855,0 7.75195,-1.599609 l 1.8457,17.288087 q -9.29004,2.03027 -17.34961,2.03027 -9.35156,0 -13.78125,-2.39941 -4.42968,-2.39942 -6.583,-7.259767 -2.0918,-4.921875 -2.0918,-15.873047 V 57.93457 h -9.22852 V 39.662109 h 9.22852 v -11.99707 z m 48.54199,46.019531 -23.93261,-2.522461 q 1.35351,-6.275391 3.87597,-9.84375 2.58399,-3.629883 7.38281,-6.275391 3.44532,-1.907226 9.47461,-2.953125 6.0293,-1.045898 13.04297,-1.045898 11.25879,0 18.08789,1.291992 6.8291,1.230469 11.38184,5.229492 3.19922,2.768555 5.04492,7.875 1.8457,5.044922 1.8457,9.65918 v 28.854492 q 0,4.614258 0.55372,7.259766 0.61523,2.583981 2.58398,6.644531 h -23.50195 q -1.41504,-2.52246 -1.84571,-3.81445 -0.43066,-1.353519 -0.86132,-4.183597 -4.92188,4.737307 -9.78223,6.767577 -6.64453,2.70703 -15.44238,2.70703 -11.68946,0 -17.78028,-5.41406 -6.02929,-5.414063 -6.02929,-13.350586 0,-7.444336 4.36816,-12.243164 4.36816,-4.798828 16.11914,-7.136719 14.08887,-2.830078 18.27246,-3.9375 4.18359,-1.168945 8.85938,-3.014648 0,-4.614258 -1.90723,-6.459961 -1.90723,-1.845703 -6.70606,-1.845703 -6.15234,0 -9.22851,1.96875 -2.39941,1.538086 -3.87598,5.783203 z m 21.71778,13.166015 q -5.16797,1.845704 -10.76661,3.260743 -7.6289,2.030273 -9.65918,3.999023 -2.09179,2.030274 -2.09179,4.614258 0,2.953125 2.03027,4.860351 2.0918,1.845704 6.09082,1.845704 4.1836,0 7.75195,-2.030274 3.62989,-2.030273 5.10645,-4.921875 1.53809,-2.953125 1.53809,-7.628906 z m 40.85156,-59.185546 h 25.28613 v 31.253906 q 3.75293,-3.9375 8.49024,-5.90625 4.79882,-1.96875 10.58203,-1.96875 11.93554,0 19.74902,8.613281 7.81348,8.551758 7.81348,24.609375 0,10.705078 -3.56836,18.887695 -3.56836,8.121094 -9.90528,12.181642 -6.27539,3.99902 -13.96582,3.99902 -6.583,0 -12.05859,-2.83008 -4.12207,-2.21484 -8.98242,-8.30566 V 105 h -23.44043 z m 25.10156,57.339843 q 0,8.428711 3.1377,12.243164 3.19922,3.75293 8.05957,3.75293 4.49121,0 7.50586,-3.691406 3.07617,-3.75293 3.07617,-12.550781 0,-7.751954 -3.01465,-11.381836 -2.95313,-3.629883 -7.19824,-3.629883 -5.10645,0 -8.36719,3.814453 -3.19922,3.75293 -3.19922,11.443359 z"
       id="path2" />
  </g>
  <path
     d="m 17.453961,105.03336 v 1.344 h -6.944 v 18.816 H 8.8459609 v -18.816 h -6.816 v -1.344 z m 11.839992,12.64 h -10.72 v 0.448 q 0,2.816 1.504,4.416 1.536,1.568 4.16,1.568 2.08,0 3.904,-0.704 l 0.384,1.28 q -0.832,0.352 -2.016,0.544 -1.152,0.224 -2.368,0.224 -1.504,0 -2.848,-0.448 -1.312,-0.448 -2.304,-1.376 -0.992,-0.96 -1.568,-2.4 -0.576,-1.472 -0.576,-3.52 0,-1.76 0.48,-3.2 0.48,-1.44 1.376,-2.432 0.896,-1.024 2.112,-1.568 1.216,-0.544 2.72,-0.544 1.28,0 2.336,0.48 1.088,0.448 1.824,1.312 0.768,0.864 1.184,2.08 0.416,1.216 0.416,2.688 z m -1.728,-1.344 q 0,-0.928 -0.224,-1.824 -0.224,-0.928 -0.736,-1.632 -0.48,-0.704 -1.28,-1.12 -0.768,-0.448 -1.888,-0.448 -1.952,0 -3.264,1.312 -1.28,1.312 -1.536,3.712 z m 11.935987,7.904 q 1.024,0 1.856,-0.224 0.832,-0.224 1.568,-0.576 l 0.352,1.152 q -0.864,0.448 -1.824,0.64 -0.928,0.224 -2.144,0.224 -1.504,0 -2.848,-0.48 -1.312,-0.48 -2.336,-1.44 -0.992,-0.96 -1.6,-2.4 -0.576,-1.472 -0.576,-3.424 0,-1.792 0.544,-3.232 0.544,-1.44 1.536,-2.432 0.992,-1.024 2.304,-1.536 1.344,-0.544 2.944,-0.544 0.992,0 1.92,0.16 0.928,0.128 2.016,0.64 l -0.384,1.312 q -0.864,-0.448 -1.664,-0.608 -0.768,-0.16 -1.6,-0.16 -1.312,0 -2.4,0.448 -1.088,0.448 -1.856,1.28 -0.768,0.8 -1.216,1.984 -0.416,1.152 -0.416,2.592 0,1.92 0.512,3.2 0.512,1.248 1.312,2.016 0.832,0.768 1.856,1.088 1.056,0.32 2.144,0.32 z m 9.024001,0.96 h -1.664 v -22.72 h 1.664 v 9.696 q 1.056,-0.96 2.336,-1.568 1.28,-0.64 2.816,-0.64 1.248,0 2.176,0.384 0.928,0.352 1.504,1.024 0.608,0.64 0.896,1.536 0.32,0.864 0.32,1.92 v 10.368 h -1.664 v -9.856 q 0,-2.208 -0.992,-3.104 -0.992,-0.928 -2.624,-0.928 -1.152,0 -2.4,0.64 -1.248,0.608 -2.368,1.664 z m 16.575979,0 h -1.664 v -15.04 h 1.216 l 0.256,2.08 q 1.088,-1.024 2.336,-1.632 1.28,-0.64 2.88,-0.64 2.304,0 3.584,1.28 1.312,1.28 1.312,3.584 v 10.368 h -1.664 v -9.952 q 0,-0.832 -0.192,-1.536 -0.16,-0.736 -0.608,-1.248 -0.416,-0.544 -1.152,-0.832 -0.704,-0.32 -1.76,-0.32 -1.216,0 -2.432,0.64 -1.184,0.608 -2.112,1.664 z m 27.104001,-7.68 q 0,1.888 -0.512,3.392 -0.512,1.472 -1.440002,2.496 -0.896,0.992 -2.112,1.536 -1.216,0.512 -2.656,0.512 -1.408,0 -2.656,-0.48 -1.216,-0.512 -2.112,-1.472 -0.896,-0.96 -1.408,-2.368 -0.512,-1.44 -0.512,-3.296 0,-1.888 0.512,-3.36 0.544,-1.472 1.472,-2.464 0.928,-1.024 2.176,-1.536 1.248,-0.512 2.656,-0.512 1.408,0 2.624,0.48 1.216,0.48 2.08,1.44 0.896002,0.96 1.376002,2.368 0.512,1.408 0.512,3.264 z m -1.728002,0.16 q 0,-1.664 -0.416,-2.848 -0.416,-1.216 -1.12,-1.984 -0.672,-0.8 -1.568,-1.152 -0.896,-0.384 -1.856,-0.384 -0.96,0 -1.856,0.384 -0.896,0.352 -1.6,1.152 -0.704,0.768 -1.12,1.984 -0.416,1.184 -0.416,2.848 0,1.76 0.416,2.976 0.448,1.216 1.152,1.984 0.704,0.768 1.6,1.12 0.928,0.352 1.888,0.352 0.96,0 1.824,-0.32 0.896,-0.352 1.568,-1.12 0.704,-0.768 1.088,-1.984 0.416,-1.248 0.416,-3.008 z m 5.632012,7.52 v -22.72 h 1.664 v 22.72 z m 18.975989,-7.68 q 0,1.888 -0.512,3.392 -0.512,1.472 -1.44,2.496 -0.896,0.992 -2.112,1.536 -1.216,0.512 -2.656,0.512 -1.408,0 -2.656,-0.48 -1.216,-0.512 -2.112,-1.472 -0.896,-0.96 -1.408,-2.368 -0.512,-1.44 -0.512,-3.296 0,-1.888 0.512,-3.36 0.544,-1.472 1.472,-2.464 0.928,-1.024 2.176,-1.536 1.248,-0.512 2.656,-0.512 1.408,0 2.624,0.48 1.216,0.48 2.08,1.44 0.896,0.96 1.376,2.368 0.512,1.408 0.512,3.264 z m -1.728,0.16 q 0,-1.664 -0.416,-2.848 -0.416,-1.216 -1.12,-1.984 -0.672,-0.8 -1.568,-1.152 -0.896,-0.384 -1.856,-0.384 -0.96,0 -1.856,0.384 -0.896,0.352 -1.6,1.152 -0.704,0.768 -1.12,1.984 -0.416,1.184 -0.416,2.848 0,1.76 0.416,2.976 0.448,1.216 1.152,1.984 0.704,0.768 1.6,1.12 0.928,0.352 1.888,0.352 0.96,0 1.824,-0.32 0.896,-0.352 1.568,-1.12 0.704,-0.768 1.088,-1.984 0.416,-1.248 0.416,-3.008 z m 4.73601,-2.528 q 0,-1.248 0.416,-2.208 0.448,-0.992 1.248,-1.632 0.8,-0.672 1.888,-0.992 1.12,-0.352 2.432,-0.352 0.576,0 0.992,0.064 0.448,0.064 0.864,0.128 h 6.24 v 1.28 h -1.856 l -2.784,-0.192 q 0.992,0.544 1.6,1.6 0.608,1.056 0.608,2.272 0,1.248 -0.448,2.24 -0.416,0.96 -1.216,1.632 -0.768,0.672 -1.824,1.024 -1.056,0.32 -2.304,0.32 -0.448,0 -0.896,-0.032 -0.416,-0.032 -0.896,-0.128 -0.768,0.288 -1.248,0.896 -0.48,0.576 -0.48,1.216 0,0.832 0.608,1.216 0.64,0.352 1.6,0.352 h 3.904 q 2.496,0 3.776,1.056 1.28,1.056 1.28,2.72 0,1.12 -0.512,2.016 -0.512,0.928 -1.472,1.568 -0.96,0.64 -2.336,0.992 -1.376,0.352 -3.104,0.352 -3.136,0 -4.992,-1.248 -1.856,-1.216 -1.856,-3.36 0,-1.184 0.672,-2.016 0.704,-0.8 1.984,-1.248 -0.48,-0.256 -0.864,-0.832 -0.352,-0.608 -0.352,-1.376 0,-1.056 0.608,-1.728 0.608,-0.704 1.408,-1.088 -0.512,-0.224 -0.992,-0.64 -0.48,-0.416 -0.864,-0.992 -0.384,-0.576 -0.608,-1.28 -0.224,-0.736 -0.224,-1.6 z m 3.104,10.048 q -0.928,0.32 -1.536,0.992 -0.576,0.672 -0.576,1.568 0,1.728 1.408,2.592 1.44,0.864 3.712,0.864 1.504,0 2.56,-0.32 1.088,-0.288 1.76,-0.8 0.704,-0.48 1.024,-1.12 0.32,-0.608 0.32,-1.248 0,-0.768 -0.32,-1.28 -0.288,-0.48 -0.864,-0.768 -0.544,-0.256 -1.312,-0.384 -0.736,-0.096 -1.632,-0.096 z m 6.816,-9.984 q 0,-1.888 -1.088,-2.88 -1.088,-1.024 -2.848,-1.024 -0.896,0 -1.664,0.256 -0.768,0.224 -1.344,0.704 -0.576,0.448 -0.928,1.152 -0.32,0.704 -0.32,1.664 0,1.984 1.184,2.944 1.184,0.96 2.944,0.96 1.76,0 2.912,-0.928 1.152,-0.928 1.152,-2.848 z m 5.95204,-5.056 h 1.728 l 3.904,9.984 1.152,3.392 h 0.064 l 0.992,-3.392 3.52,-9.984 h 1.6 l -5.792,16.32 q -0.864,2.432 -2.208,3.904 -1.344,1.472 -3.232,2.208 l -0.672,-1.216 q 1.632,-0.672 2.784,-1.856 1.152,-1.184 1.92,-3.456 l 0.288,-0.864 z m 30.07997,1.28 h -5.056 v 9.856 q 0,1.504 0.672,2.048 0.672,0.512 1.856,0.512 0.928,0 1.728,-0.16 0.8,-0.192 1.344,-0.384 l 0.256,1.248 q -0.64,0.256 -1.568,0.448 -0.928,0.192 -2.048,0.192 -1.92,0 -2.912,-0.896 -0.992,-0.928 -0.992,-2.784 v -10.08 h -2.72 v -1.28 h 2.72 v -4.8 h 1.664 v 4.8 h 5.056 z m 5.6,13.76 h -1.664 v -22.72 h 1.664 v 9.696 q 1.056,-0.96 2.336,-1.568 1.28,-0.64 2.816,-0.64 1.248,0 2.176,0.384 0.928,0.352 1.504,1.024 0.608,0.64 0.896,1.536 0.32,0.864 0.32,1.92 v 10.368 h -1.664 v -9.856 q 0,-2.208 -0.992,-3.104 -0.992,-0.928 -2.624,-0.928 -1.152,0 -2.4,0.64 -1.248,0.608 -2.368,1.664 z m 14.55997,-13.728 q 1.504,-0.8 2.752,-1.152 1.28,-0.352 2.72,-0.352 1.024,0 1.92,0.288 0.928,0.288 1.6,0.928 0.704,0.64 1.088,1.696 0.416,1.024 0.416,2.528 v 9.792 h -1.152 l -0.352,-1.984 h -0.064 q -0.928,1.12 -2.176,1.696 -1.248,0.544 -2.784,0.544 -1.056,0 -1.952,-0.288 -0.896,-0.32 -1.568,-0.896 -0.64,-0.576 -1.024,-1.376 -0.352,-0.832 -0.352,-1.824 0,-1.184 0.48,-2.08 0.48,-0.896 1.344,-1.472 0.864,-0.608 2.048,-0.896 1.216,-0.288 2.688,-0.288 h 3.2 v -0.992 q 0,-2.176 -0.96,-3.104 -0.96,-0.928 -2.496,-0.928 -0.928,0 -2.144,0.288 -1.216,0.288 -2.592,1.056 z m 8.832,6.176 -2.656,0.032 q -1.44,0.032 -2.464,0.32 -1.024,0.256 -1.696,0.704 -0.64,0.416 -0.928,1.024 -0.288,0.576 -0.288,1.248 0,0.832 0.288,1.44 0.288,0.576 0.768,0.96 0.48,0.384 1.12,0.576 0.672,0.16 1.408,0.16 0.576,0 1.184,-0.128 0.608,-0.16 1.184,-0.448 0.608,-0.32 1.152,-0.768 0.544,-0.48 0.928,-1.152 z m 14.23997,-6.208 h -5.056 v 9.856 q 0,1.504 0.672,2.048 0.672,0.512 1.856,0.512 0.928,0 1.728,-0.16 0.8,-0.192 1.344,-0.384 l 0.256,1.248 q -0.64,0.256 -1.568,0.448 -0.928,0.192 -2.048,0.192 -1.92,0 -2.912,-0.896 -0.992,-0.928 -0.992,-2.784 v -10.08 h -2.72 v -1.28 h 2.72 v -4.8 h 1.664 v 4.8 h 5.056 z m 8.44796,-1.28 h 1.664 l 2.624,9.472 0.928,4.16 h 0.064 l 1.056,-4.16 2.912,-9.472 h 1.76 l 2.816,9.472 1.088,4.16 h 0.064 l 1.056,-4.16 2.592,-9.472 h 1.6 l -4.256,15.04 h -1.92 l -2.88,-9.856 -1.056,-4.032 -1.088,4.032 -2.944,9.856 h -1.76 z m 35.32798,7.36 q 0,1.888 -0.512,3.392 -0.512,1.472 -1.44,2.496 -0.896,0.992 -2.112,1.536 -1.216,0.512 -2.656,0.512 -1.408,0 -2.656,-0.48 -1.216,-0.512 -2.112,-1.472 -0.896,-0.96 -1.408,-2.368 -0.512,-1.44 -0.512,-3.296 0,-1.888 0.512,-3.36 0.544,-1.472 1.472,-2.464 0.928,-1.024 2.176,-1.536 1.248,-0.512 2.656,-0.512 1.408,0 2.624,0.48 1.216,0.48 2.08,1.44 0.896,0.96 1.376,2.368 0.512,1.408 0.512,3.264 z m -1.728,0.16 q 0,-1.664 -0.416,-2.848 -0.416,-1.216 -1.12,-1.984 -0.672,-0.8 -1.568,-1.152 -0.896,-0.384 -1.856,-0.384 -0.96,0 -1.856,0.384 -0.896,0.352 -1.6,1.152 -0.704,0.768 -1.12,1.984 -0.416,1.184 -0.416,2.848 0,1.76 0.416,2.976 0.448,1.216 1.152,1.984 0.704,0.768 1.6,1.12 0.928,0.352 1.888,0.352 0.96,0 1.824,-0.32 0.896,-0.352 1.568,-1.12 0.704,-0.768 1.088,-1.984 0.416,-1.248 0.416,-3.008 z m 5.44001,7.52 v -15.04 h 1.088 l 0.384,3.008 q 0.544,-1.44 1.856,-2.304 1.312,-0.896 2.944,-0.896 0.768,0 1.344,0.128 0.576,0.128 0.896,0.288 l -0.32,1.472 q -0.384,-0.16 -0.864,-0.288 -0.48,-0.128 -1.12,-0.128 -0.928,0 -1.76,0.32 -0.8,0.32 -1.44,0.992 -0.608,0.672 -0.992,1.696 -0.352,0.992 -0.352,2.368 v 8.384 z m 13.184,-5.504 v 5.504 h -1.664 v -22.72 h 1.664 v 15.296 l 7.552,-7.616 h 2.08 l -6.336,6.336 6.624,8.704 h -1.984 l -5.728,-7.712 z m 20.22402,-7.648 q -1.6,-0.736 -3.488,-0.736 -1.728,0 -2.592,0.736 -0.864,0.704 -0.864,1.824 0,1.12 0.736,1.728 0.736,0.576 2.592,1.12 l 0.96,0.288 q 1.824,0.544 2.784,1.6 0.96,1.056 0.96,2.592 0,0.896 -0.352,1.696 -0.352,0.768 -1.024,1.344 -0.672,0.576 -1.696,0.896 -0.992,0.32 -2.304,0.32 -1.44,0 -2.528,-0.256 -1.088,-0.224 -1.92,-0.608 l 0.448,-1.312 q 0.832,0.416 1.728,0.64 0.896,0.192 2.112,0.192 1.824,0 2.816,-0.704 0.992,-0.704 0.992,-2.016 0,-1.024 -0.736,-1.76 -0.704,-0.768 -2.528,-1.344 l -1.024,-0.32 q -3.744,-1.184 -3.744,-3.936 0,-0.896 0.352,-1.632 0.384,-0.768 1.024,-1.28 0.672,-0.544 1.568,-0.832 0.928,-0.32 2.048,-0.32 1.024,0 2.112,0.16 1.088,0.16 1.984,0.608 z"
     id="text2"
     style="font-weight:100;font-size:32px;fill:#7f7f7f;stroke:#7f7f7f;stroke-width:1"
     aria-label="Technology that works" />
</svg>
