<?xml version="1.0" encoding="UTF-8" standalone="no"?>
<svg
   height="237"
   width="538"
   version="1.1"
   id="svg2"
   sodipodi:docname="btab-logo-big.svg"
   inkscape:version="1.3.1 (91b66b0, 2023-11-16)"
   xmlns:inkscape="http://www.inkscape.org/namespaces/inkscape"
   xmlns:sodipodi="http://sodipodi.sourceforge.net/DTD/sodipodi-0.dtd"
   xmlns="http://www.w3.org/2000/svg"
   xmlns:svg="http://www.w3.org/2000/svg">
  <defs
     id="defs2" />
  <sodipodi:namedview
     id="namedview2"
     pagecolor="#ffffff"
     bordercolor="#000000"
     borderopacity="0.25"
     inkscape:showpageshadow="2"
     inkscape:pageopacity="0.0"
     inkscape:pagecheckerboard="0"
     inkscape:deskcolor="#d1d1d1"
     inkscape:zoom="0.99578059"
     inkscape:cx="268.63347"
     inkscape:cy="118.5"
     inkscape:window-width="1920"
     inkscape:window-height="1027"
     inkscape:window-x="0"
     inkscape:window-y="25"
     inkscape:window-maximized="1"
     inkscape:current-layer="svg2" />
  <g
     id="text1"
     style="font-size:209px;font-family:'Arial Black';fill:#a2c93e"
     aria-label="B tab">
    <path
       d="m 16.409668,16.393555 h 86.539062 q 21.63477,0 33.1665,10.715332 11.63379,10.715332 11.63379,26.533203 0,13.266601 -8.26611,22.757324 -5.51074,6.327148 -16.12402,10.000977 16.12402,3.877929 23.67578,13.368652 7.65381,9.388667 7.65381,23.675777 0,11.63379 -5.40869,20.92041 -5.4087,9.28663 -14.79737,14.69532 -5.81689,3.36767 -17.55273,4.89843 Q 101.31592,166 96.213379,166 H 16.409668 Z m 46.637207,58.679199 h 20.104004 q 10.817383,0 15.001465,-3.673828 4.286136,-3.775879 4.286136,-10.817383 0,-6.53125 -4.286136,-10.205078 -4.184082,-3.673828 -14.695313,-3.673828 H 63.046875 Z m 0,58.781246 h 23.57373 q 11.939942,0 16.838375,-4.18408 4.89844,-4.28613 4.89844,-11.42969 0,-6.6333 -4.89844,-10.61328 -4.796382,-4.08203 -16.940425,-4.08203 h -23.47168 z"
       id="path2" />
    <path
       style="fill:#747474"
       d="M 227.65918,16.393555 V 57.62207 h 22.85937 V 87.931152 H 227.65918 V 126.4043 q 0,6.93945 1.32666,9.18457 2.04102,3.46972 7.14355,3.46972 4.59229,0 12.8584,-2.65332 l 3.06153,28.67627 q -15.40967,3.36768 -28.77832,3.36768 -15.51172,0 -22.85938,-3.97998 -7.34766,-3.97998 -10.91943,-12.04199 -3.46973,-8.16407 -3.46973,-26.32911 V 87.931152 H 170.71484 V 57.62207 h 15.30762 V 37.722168 Z m 80.51807,76.333984 -39.69776,-4.184082 q 2.24512,-10.40918 6.4292,-16.328125 4.28613,-6.020996 12.2461,-10.40918 5.71484,-3.163574 15.71582,-4.898437 10.00097,-1.734863 21.63476,-1.734863 18.67529,0 30.00293,2.143066 11.32764,2.041016 18.8794,8.674316 5.30664,4.592286 8.36816,13.0625 3.06152,8.368164 3.06152,16.021973 v 47.861813 q 0,7.65381 0.91846,12.042 1.02051,4.28613 4.28613,11.02148 h -38.9834 q -2.34716,-4.18408 -3.06152,-6.32715 -0.71435,-2.24512 -1.42871,-6.93945 -8.16406,7.85791 -16.22607,11.22558 -11.02149,4.49024 -25.61475,4.49024 -19.38965,0 -29.49268,-8.98047 -10.00097,-8.98047 -10.00097,-22.14502 0,-12.34814 7.2456,-20.3081 7.24561,-7.95997 26.73731,-11.8379 23.36963,-4.69433 30.30908,-6.531246 6.93945,-1.938964 14.69531,-5.000488 0,-7.653809 -3.16357,-10.715332 -3.16358,-3.061523 -11.12354,-3.061523 -10.20508,0 -15.30761,3.265625 -3.97999,2.551269 -6.4292,9.592773 z m 36.02392,21.838871 q -8.57226,3.06152 -17.85888,5.40869 -12.6543,3.36767 -16.02198,6.6333 -3.46972,3.36767 -3.46972,7.65381 0,4.89843 3.36767,8.06201 3.46973,3.06152 10.10303,3.06152 6.93945,0 12.8584,-3.36767 6.02099,-3.36768 8.47021,-8.16407 2.55127,-4.89843 2.55127,-12.65429 z m 67.76172,-98.172855 h 41.94287 v 51.841797 q 6.2251,-6.53125 14.08301,-9.796875 7.95996,-3.265625 17.55273,-3.265625 19.79786,0 32.7583,14.287109 12.96045,14.185059 12.96045,40.820309 0,17.75684 -5.91894,31.32959 -5.91895,13.47071 -16.43018,20.20606 -10.40918,6.6333 -23.16552,6.6333 -10.91944,0 -20.00196,-4.69434 -6.8374,-3.67383 -14.89941,-13.77685 V 166 h -38.88135 z m 41.63672,95.111325 q 0,13.98096 5.20459,20.30811 5.30664,6.2251 13.36865,6.2251 7.44971,0 12.4502,-6.12305 5.10254,-6.2251 5.10254,-20.81836 0,-12.858399 -5.00049,-18.879395 -4.89844,-6.020996 -11.93994,-6.020996 -8.47022,0 -13.87891,6.327148 -5.30664,6.225098 -5.30664,18.981443 z"
       id="path3" />
  </g>
  <path
     d="m 43.076,188.61 v 2.226 H 31.575 V 222 H 28.819 V 190.836 H 17.53 v -2.226 z m 19.609987,20.935 h -17.755 v 0.742 q 0,4.664 2.491,7.314 2.544,2.597 6.89,2.597 3.445,0 6.466,-1.166 l 0.636,2.12 q -1.378,0.583 -3.339,0.901 -1.908,0.371 -3.922,0.371 -2.491,0 -4.717,-0.742 -2.173,-0.742 -3.816,-2.279 -1.643,-1.59 -2.597,-3.975 -0.954,-2.438 -0.954,-5.83 0,-2.915 0.795,-5.3 0.795,-2.385 2.279,-4.028 1.484,-1.696 3.498,-2.597 2.014,-0.901 4.505,-0.901 2.12,0 3.869,0.795 1.802,0.742 3.021,2.173 1.272,1.431 1.961,3.445 0.689,2.014 0.689,4.452 z m -2.862,-2.226 q 0,-1.537 -0.371,-3.021 -0.371,-1.537 -1.219,-2.703 -0.795,-1.166 -2.12,-1.855 -1.272,-0.742 -3.127,-0.742 -3.233,0 -5.406,2.173 -2.12,2.173 -2.544,6.148 z m 19.768977,13.091 q 1.696,0 3.074,-0.371 1.378,-0.371 2.597,-0.954 l 0.583,1.908 q -1.431,0.742 -3.021,1.06 -1.537,0.371 -3.551,0.371 -2.491,0 -4.717,-0.795 -2.173,-0.795 -3.869,-2.385 -1.643,-1.59 -2.65,-3.975 -0.954,-2.438 -0.954,-5.671 0,-2.968 0.901,-5.353 0.901,-2.385 2.544,-4.028 1.643,-1.696 3.816,-2.544 2.226,-0.901 4.876,-0.901 1.643,0 3.18,0.265 1.537,0.212 3.339,1.06 l -0.636,2.173 q -1.431,-0.742 -2.756,-1.007 -1.272,-0.265 -2.65,-0.265 -2.173,0 -3.975,0.742 -1.802,0.742 -3.074,2.12 -1.272,1.325 -2.014,3.286 -0.689,1.908 -0.689,4.293 0,3.18 0.848,5.3 0.848,2.067 2.173,3.339 1.378,1.272 3.074,1.802 1.749,0.53 3.551,0.53 z M 94.538969,222 h -2.756 v -37.63 h 2.756 v 16.059 q 1.749,-1.59 3.869,-2.597 2.120001,-1.06 4.664001,-1.06 2.067,0 3.604,0.636 1.537,0.583 2.491,1.696 1.007,1.06 1.484,2.544 0.53,1.431 0.53,3.18 V 222 h -2.756 v -16.324 q 0,-3.657 -1.643,-5.141 -1.643,-1.537 -4.346,-1.537 -1.908,0 -3.975001,1.06 -2.067,1.007 -3.922,2.756 z m 27.453961,0 h -2.756 v -24.91 h 2.014 l 0.424,3.445 q 1.802,-1.696 3.869,-2.703 2.12,-1.06 4.77,-1.06 3.816,0 5.936,2.12 2.173,2.12 2.173,5.936 V 222 h -2.756 v -16.483 q 0,-1.378 -0.318,-2.544 -0.265,-1.219 -1.007,-2.067 -0.689,-0.901 -1.908,-1.378 -1.166,-0.53 -2.915,-0.53 -2.014,0 -4.028,1.06 -1.961,1.007 -3.498,2.756 z m 44.891,-12.72 q 0,3.127 -0.848,5.618 -0.848,2.438 -2.385,4.134 -1.484,1.643 -3.498,2.544 -2.014,0.848 -4.399,0.848 -2.332,0 -4.399,-0.795 -2.014,-0.848 -3.498,-2.438 -1.484,-1.59 -2.332,-3.922 -0.848,-2.385 -0.848,-5.459 0,-3.127 0.848,-5.565 0.901,-2.438 2.438,-4.081 1.537,-1.696 3.604,-2.544 2.067,-0.848 4.399,-0.848 2.332,0 4.346,0.795 2.014,0.795 3.445,2.385 1.484,1.59 2.279,3.922 0.848,2.332 0.848,5.406 z m -2.862,0.265 q 0,-2.756 -0.689,-4.717 -0.689,-2.014 -1.855,-3.286 -1.113,-1.325 -2.597,-1.908 -1.484,-0.636 -3.074,-0.636 -1.59,0 -3.074,0.636 -1.484,0.583 -2.65,1.908 -1.166,1.272 -1.855,3.286 -0.689,1.961 -0.689,4.717 0,2.915 0.689,4.929 0.742,2.014 1.908,3.286 1.166,1.272 2.65,1.855 1.537,0.583 3.127,0.583 1.59,0 3.021,-0.53 1.484,-0.583 2.597,-1.855 1.166,-1.272 1.802,-3.286 0.689,-2.067 0.689,-4.982 z M 173.34994,222 v -37.63 h 2.756 V 222 Z m 31.42899,-12.72 q 0,3.127 -0.848,5.618 -0.848,2.438 -2.385,4.134 -1.484,1.643 -3.498,2.544 -2.014,0.848 -4.399,0.848 -2.332,0 -4.399,-0.795 -2.014,-0.848 -3.498,-2.438 -1.484,-1.59 -2.332,-3.922 -0.848,-2.385 -0.848,-5.459 0,-3.127 0.848,-5.565 0.901,-2.438 2.438,-4.081 1.537,-1.696 3.604,-2.544 2.067,-0.848 4.399,-0.848 2.332,0 4.346,0.795 2.014,0.795 3.445,2.385 1.484,1.59 2.279,3.922 0.848,2.332 0.848,5.406 z m -2.862,0.265 q 0,-2.756 -0.689,-4.717 -0.689,-2.014 -1.855,-3.286 -1.113,-1.325 -2.597,-1.908 -1.484,-0.636 -3.074,-0.636 -1.59,0 -3.074,0.636 -1.484,0.583 -2.65,1.908 -1.166,1.272 -1.855,3.286 -0.689,1.961 -0.689,4.717 0,2.915 0.689,4.929 0.742,2.014 1.908,3.286 1.166,1.272 2.65,1.855 1.537,0.583 3.127,0.583 1.59,0 3.021,-0.53 1.484,-0.583 2.597,-1.855 1.166,-1.272 1.802,-3.286 0.689,-2.067 0.689,-4.982 z m 7.84401,-4.187 q 0,-2.067 0.689,-3.657 0.742,-1.643 2.067,-2.703 1.325,-1.113 3.127,-1.643 1.855,-0.583 4.028,-0.583 0.954,0 1.643,0.106 0.742,0.106 1.431,0.212 h 10.335 v 2.12 h -3.074 l -4.611,-0.318 q 1.643,0.901 2.65,2.65 1.007,1.749 1.007,3.763 0,2.067 -0.742,3.71 -0.689,1.59 -2.014,2.703 -1.272,1.113 -3.021,1.696 -1.749,0.53 -3.816,0.53 -0.742,0 -1.484,-0.053 -0.689,-0.053 -1.484,-0.212 -1.272,0.477 -2.067,1.484 -0.795,0.954 -0.795,2.014 0,1.378 1.007,2.014 1.06,0.583 2.65,0.583 h 6.466 q 4.134,0 6.254,1.749 2.12,1.749 2.12,4.505 0,1.855 -0.848,3.339 -0.848,1.537 -2.438,2.597 -1.59,1.06 -3.869,1.643 -2.279,0.583 -5.141,0.583 -5.194,0 -8.268,-2.067 -3.074,-2.014 -3.074,-5.565 0,-1.961 1.113,-3.339 1.166,-1.325 3.286,-2.067 -0.795,-0.424 -1.431,-1.378 -0.583,-1.007 -0.583,-2.279 0,-1.749 1.007,-2.862 1.007,-1.166 2.332,-1.802 -0.848,-0.371 -1.643,-1.06 -0.795,-0.689 -1.431,-1.643 -0.636,-0.954 -1.007,-2.12 -0.371,-1.219 -0.371,-2.65 z m 5.141,16.642 q -1.537,0.53 -2.544,1.643 -0.954,1.113 -0.954,2.597 0,2.862 2.332,4.293 2.385,1.431 6.148,1.431 2.491,0 4.24,-0.53 1.802,-0.477 2.915,-1.325 1.166,-0.795 1.696,-1.855 0.53,-1.007 0.53,-2.067 0,-1.272 -0.53,-2.12 -0.477,-0.795 -1.431,-1.272 -0.901,-0.424 -2.173,-0.636 -1.219,-0.159 -2.703,-0.159 z m 11.289,-16.536 q 0,-3.127 -1.802,-4.77 -1.802,-1.696 -4.717,-1.696 -1.484,0 -2.756,0.424 -1.272,0.371 -2.226,1.166 -0.954,0.742 -1.537,1.908 -0.53,1.166 -0.53,2.756 0,3.286 1.961,4.876 1.961,1.59 4.876,1.59 2.915,0 4.823,-1.537 1.908,-1.537 1.908,-4.717 z m 9.85807,-8.374 h 2.862 l 6.466,16.536 1.908,5.618 h 0.106 l 1.643,-5.618 5.83,-16.536 h 2.65 l -9.593,27.03 q -1.431,4.028 -3.657,6.466 -2.226,2.438 -5.353,3.657 l -1.113,-2.014 q 2.703,-1.113 4.611,-3.074 1.908,-1.961 3.18,-5.724 l 0.477,-1.431 z m 49.81996,2.12 h -8.374 v 16.324 q 0,2.491 1.113,3.392 1.113,0.848 3.074,0.848 1.537,0 2.862,-0.265 1.325,-0.318 2.226,-0.636 l 0.424,2.067 q -1.06,0.424 -2.597,0.742 -1.537,0.318 -3.392,0.318 -3.18,0 -4.823,-1.484 -1.643,-1.537 -1.643,-4.611 V 199.21 h -4.505 v -2.12 h 4.505 v -7.95 h 2.756 v 7.95 h 8.374 z m 9.27498,22.79 h -2.756 v -37.63 h 2.756 v 16.059 q 1.749,-1.59 3.869,-2.597 2.12,-1.06 4.664,-1.06 2.067,0 3.604,0.636 1.537,0.583 2.491,1.696 1.007,1.06 1.484,2.544 0.53,1.431 0.53,3.18 V 222 h -2.756 v -16.324 q 0,-3.657 -1.643,-5.141 -1.643,-1.537 -4.346,-1.537 -1.908,0 -3.975,1.06 -2.067,1.007 -3.922,2.756 z m 24.11498,-22.737 q 2.491,-1.325 4.558,-1.908 2.12,-0.583 4.505,-0.583 1.696,0 3.18,0.477 1.537,0.477 2.65,1.537 1.166,1.06 1.802,2.809 0.689,1.696 0.689,4.187 V 222 h -1.908 l -0.583,-3.286 h -0.106 q -1.537,1.855 -3.604,2.809 -2.067,0.901 -4.611,0.901 -1.749,0 -3.233,-0.477 -1.484,-0.53 -2.597,-1.484 -1.06,-0.954 -1.696,-2.279 -0.583,-1.378 -0.583,-3.021 0,-1.961 0.795,-3.445 0.795,-1.484 2.226,-2.438 1.431,-1.007 3.392,-1.484 2.014,-0.477 4.452,-0.477 h 5.3 v -1.643 q 0,-3.604 -1.59,-5.141 -1.59,-1.537 -4.134,-1.537 -1.537,0 -3.551,0.477 -2.014,0.477 -4.293,1.749 z m 14.628,10.229 -4.399,0.053 q -2.385,0.053 -4.081,0.53 -1.696,0.424 -2.809,1.166 -1.06,0.689 -1.537,1.696 -0.477,0.954 -0.477,2.067 0,1.378 0.477,2.385 0.477,0.954 1.272,1.59 0.795,0.636 1.855,0.954 1.113,0.265 2.332,0.265 0.954,0 1.961,-0.212 1.007,-0.265 1.961,-0.742 1.007,-0.53 1.908,-1.272 0.901,-0.795 1.537,-1.908 z m 23.58493,-10.282 h -8.374 v 16.324 q 0,2.491 1.113,3.392 1.113,0.848 3.074,0.848 1.537,0 2.862,-0.265 1.325,-0.318 2.226,-0.636 l 0.424,2.067 q -1.06,0.424 -2.597,0.742 -1.537,0.318 -3.392,0.318 -3.18,0 -4.823,-1.484 -1.643,-1.537 -1.643,-4.611 V 199.21 h -4.505 v -2.12 h 4.505 v -7.95 h 2.756 v 7.95 h 8.374 z m 13.99194,-2.12 h 2.756 l 4.346,15.688 1.537,6.89 h 0.106 l 1.749,-6.89 4.823,-15.688 h 2.915 l 4.664,15.688 1.802,6.89 h 0.106 l 1.749,-6.89 4.293,-15.688 h 2.65 l -7.049,24.91 h -3.18 l -4.77,-16.324 -1.749,-6.678 -1.802,6.678 -4.876,16.324 h -2.915 z m 58.51196,12.19 q 0,3.127 -0.848,5.618 -0.848,2.438 -2.385,4.134 -1.484,1.643 -3.498,2.544 -2.014,0.848 -4.399,0.848 -2.332,0 -4.399,-0.795 -2.014,-0.848 -3.498,-2.438 -1.484,-1.59 -2.332,-3.922 -0.848,-2.385 -0.848,-5.459 0,-3.127 0.848,-5.565 0.901,-2.438 2.438,-4.081 1.537,-1.696 3.604,-2.544 2.067,-0.848 4.399,-0.848 2.332,0 4.346,0.795 2.014,0.795 3.445,2.385 1.484,1.59 2.279,3.922 0.848,2.332 0.848,5.406 z m -2.862,0.265 q 0,-2.756 -0.689,-4.717 -0.689,-2.014 -1.855,-3.286 -1.113,-1.325 -2.597,-1.908 -1.484,-0.636 -3.074,-0.636 -1.59,0 -3.074,0.636 -1.484,0.583 -2.65,1.908 -1.166,1.272 -1.855,3.286 -0.689,1.961 -0.689,4.717 0,2.915 0.689,4.929 0.742,2.014 1.908,3.286 1.166,1.272 2.65,1.855 1.537,0.583 3.127,0.583 1.59,0 3.021,-0.53 1.484,-0.583 2.597,-1.855 1.166,-1.272 1.802,-3.286 0.689,-2.067 0.689,-4.982 z M 436.12378,222 v -24.91 h 1.802 l 0.636,4.982 q 0.901,-2.385 3.074,-3.816 2.173,-1.484 4.876,-1.484 1.272,0 2.226,0.212 0.954,0.212 1.484,0.477 l -0.53,2.438 q -0.636,-0.265 -1.431,-0.477 -0.795,-0.212 -1.855,-0.212 -1.537,0 -2.915,0.53 -1.325,0.53 -2.385,1.643 -1.007,1.113 -1.643,2.809 -0.583,1.643 -0.583,3.922 V 222 Z m 21.836,-9.116 V 222 h -2.756 v -37.63 h 2.756 v 25.334 l 12.508,-12.614 h 3.445 l -10.494,10.494 10.971,14.416 h -3.286 l -9.487,-12.773 z m 33.49604,-12.667 q -2.65,-1.219 -5.777,-1.219 -2.862,0 -4.293,1.219 -1.431,1.166 -1.431,3.021 0,1.855 1.219,2.862 1.219,0.954 4.293,1.855 l 1.59,0.477 q 3.021,0.901 4.611,2.65 1.59,1.749 1.59,4.293 0,1.484 -0.583,2.809 -0.583,1.272 -1.696,2.226 -1.113,0.954 -2.809,1.484 -1.643,0.53 -3.816,0.53 -2.385,0 -4.187,-0.424 -1.802,-0.371 -3.18,-1.007 l 0.742,-2.173 q 1.378,0.689 2.862,1.06 1.484,0.318 3.498,0.318 3.021,0 4.664,-1.166 1.643,-1.166 1.643,-3.339 0,-1.696 -1.219,-2.915 -1.166,-1.272 -4.187,-2.226 l -1.696,-0.53 q -6.201,-1.961 -6.201,-6.519 0,-1.484 0.583,-2.703 0.636,-1.272 1.696,-2.12 1.113,-0.901 2.597,-1.378 1.537,-0.53 3.392,-0.53 1.696,0 3.498,0.265 1.802,0.265 3.286,1.007 z"
     id="text2"
     style="font-weight:lighter;font-size:53px;font-family:'Mukta Mahee';fill:#747474"
     aria-label="Technology that works" />
</svg>
