<?xml version="1.0" encoding="UTF-8" standalone="no"?>
<svg
   version="1.1"
   height="132.58536"
   width="313.51758"
   id="svg2"
   sodipodi:docname="btab-logo-big02.svg"
   inkscape:version="1.3.1 (91b66b0, 2023-11-16)"
   inkscape:export-filename="btab (2).svg"
   inkscape:export-xdpi="96"
   inkscape:export-ydpi="96"
   xmlns:inkscape="http://www.inkscape.org/namespaces/inkscape"
   xmlns:sodipodi="http://sodipodi.sourceforge.net/DTD/sodipodi-0.dtd"
   xmlns="http://www.w3.org/2000/svg"
   xmlns:svg="http://www.w3.org/2000/svg">
  <sodipodi:namedview
     id="namedview1"
     pagecolor="#ffffff"
     bordercolor="#000000"
     borderopacity="0.25"
     inkscape:showpageshadow="2"
     inkscape:pageopacity="0.0"
     inkscape:pagecheckerboard="0"
     inkscape:deskcolor="#d1d1d1"
     inkscape:zoom="1.4542857"
     inkscape:cx="180.50098"
     inkscape:cy="77.357565"
     inkscape:window-width="1920"
     inkscape:window-height="962"
     inkscape:window-x="0"
     inkscape:window-y="25"
     inkscape:window-maximized="1"
     inkscape:current-layer="svg2" />
  <defs
     id="defs2" />
  <g
     id="text1"
     style="font-weight:bold;font-size:126px;fill:#99cc00;stroke-width:1.07213"
     aria-label="B tab"
     transform="matrix(0.94297548,0,0,0.92257117,0.86644026,-7.471575)">
    <path
       d="M 9.2900391,14.806641 H 61.461914 q 13.042969,0 19.995117,6.459961 7.013672,6.45996 7.013672,15.996093 0,7.998047 -4.983398,13.719727 -3.322266,3.814453 -9.720703,6.029297 9.720703,2.33789 14.273437,8.05957 4.614258,5.660156 4.614258,14.273438 0,7.013671 -3.260742,12.612304 -3.260743,5.598633 -8.920899,8.859379 -3.506836,2.03027 -10.582031,2.95312 Q 60.477539,105 57.401367,105 H 9.2900391 Z M 37.40625,50.182617 h 12.120117 q 6.521485,0 9.043945,-2.214844 2.583985,-2.276367 2.583985,-6.521484 0,-3.9375 -2.583985,-6.152344 -2.52246,-2.214843 -8.859375,-2.214843 H 37.40625 Z m 0,35.4375 h 14.211914 q 7.198242,0 10.151367,-2.522461 2.953125,-2.583984 2.953125,-6.890625 0,-3.999023 -2.953125,-6.398437 -2.891601,-2.460938 -10.21289,-2.460938 H 37.40625 Z"
       id="path1"
       style="stroke-width:1.07213" />
    <path
       style="fill:#7f7f7f;stroke-width:1.07213"
       d="m 139.77539,14.806641 v 24.855468 h 13.78125 V 57.93457 h -13.78125 v 23.194336 q 0,4.183594 0.79981,5.53711 1.23046,2.091796 4.30664,2.091796 2.76855,0 7.75195,-1.599609 l 1.8457,17.288087 q -9.29004,2.03027 -17.34961,2.03027 -9.35156,0 -13.78125,-2.39941 -4.42968,-2.39942 -6.583,-7.259767 -2.0918,-4.921875 -2.0918,-15.873047 V 57.93457 h -9.22852 V 39.662109 h 9.22852 v -11.99707 z m 48.54199,46.019531 -23.93261,-2.522461 q 1.35351,-6.275391 3.87597,-9.84375 2.58399,-3.629883 7.38281,-6.275391 3.44532,-1.907226 9.47461,-2.953125 6.0293,-1.045898 13.04297,-1.045898 11.25879,0 18.08789,1.291992 6.8291,1.230469 11.38184,5.229492 3.19922,2.768555 5.04492,7.875 1.8457,5.044922 1.8457,9.65918 v 28.854492 q 0,4.614258 0.55372,7.259766 0.61523,2.583981 2.58398,6.644531 h -23.50195 q -1.41504,-2.52246 -1.84571,-3.81445 -0.43066,-1.353519 -0.86132,-4.183597 -4.92188,4.737307 -9.78223,6.767577 -6.64453,2.70703 -15.44238,2.70703 -11.68946,0 -17.78028,-5.41406 -6.02929,-5.414063 -6.02929,-13.350586 0,-7.444336 4.36816,-12.243164 4.36816,-4.798828 16.11914,-7.136719 14.08887,-2.830078 18.27246,-3.9375 4.18359,-1.168945 8.85938,-3.014648 0,-4.614258 -1.90723,-6.459961 -1.90723,-1.845703 -6.70606,-1.845703 -6.15234,0 -9.22851,1.96875 -2.39941,1.538086 -3.87598,5.783203 z m 21.71778,13.166015 q -5.16797,1.845704 -10.76661,3.260743 -7.6289,2.030273 -9.65918,3.999023 -2.09179,2.030274 -2.09179,4.614258 0,2.953125 2.03027,4.860351 2.0918,1.845704 6.09082,1.845704 4.1836,0 7.75195,-2.030274 3.62989,-2.030273 5.10645,-4.921875 1.53809,-2.953125 1.53809,-7.628906 z m 40.85156,-59.185546 h 25.28613 v 31.253906 q 3.75293,-3.9375 8.49024,-5.90625 4.79882,-1.96875 10.58203,-1.96875 11.93554,0 19.74902,8.613281 7.81348,8.551758 7.81348,24.609375 0,10.705078 -3.56836,18.887695 -3.56836,8.121094 -9.90528,12.181642 -6.27539,3.99902 -13.96582,3.99902 -6.583,0 -12.05859,-2.83008 -4.12207,-2.21484 -8.98242,-8.30566 V 105 h -23.44043 z m 25.10156,57.339843 q 0,8.428711 3.1377,12.243164 3.19922,3.75293 8.05957,3.75293 4.49121,0 7.50586,-3.691406 3.07617,-3.75293 3.07617,-12.550781 0,-7.751954 -3.01465,-11.381836 -2.95313,-3.629883 -7.19824,-3.629883 -5.10645,0 -8.36719,3.814453 -3.19922,3.75293 -3.19922,11.443359 z"
       id="path2" />
  </g>
  <path
     d="m 26.085376,103.08935 v 1.23994 h -6.548022 v 17.35909 h -1.569111 v -17.35909 h -6.427321 v -1.23994 z m 11.164822,11.6613 H 27.141501 v 0.41331 q 0,2.59796 1.418235,4.07407 1.448411,1.44659 3.922778,1.44659 1.961389,0 3.681376,-0.64949 l 0.362103,1.18089 q -0.784557,0.32475 -1.901039,0.50189 -1.086307,0.20666 -2.232966,0.20666 -1.418235,0 -2.685594,-0.41332 -1.237184,-0.41331 -2.172615,-1.26946 -0.935432,-0.88566 -1.478586,-2.21416 -0.543153,-1.35804 -0.543153,-3.24746 0,-1.62372 0.452628,-2.95223 0.452628,-1.3285 1.297533,-2.24369 0.844907,-0.9447 1.991565,-1.44659 1.146658,-0.50187 2.564894,-0.50187 1.207008,0 2.202791,0.44282 1.025956,0.41332 1.719985,1.21043 0.724207,0.7971 1.116484,1.91893 0.392278,1.12185 0.392278,2.47989 z m -1.629462,-1.23993 q 0,-0.85615 -0.211226,-1.68278 -0.211226,-0.85614 -0.69403,-1.50563 -0.452628,-0.64949 -1.207009,-1.03327 -0.724205,-0.41332 -1.780337,-0.41332 -1.840689,0 -3.077872,1.21042 -1.207009,1.2104 -1.448411,3.42458 z m 11.255344,7.292 q 0.965606,0 1.750162,-0.20666 0.784555,-0.20666 1.478585,-0.5314 l 0.331928,1.06281 q -0.814731,0.4133 -1.719988,0.59044 -0.875081,0.20666 -2.021739,0.20666 -1.418235,0 -2.685594,-0.44284 -1.237183,-0.44284 -2.202791,-1.32849 -0.935431,-0.88568 -1.508761,-2.21419 -0.543154,-1.35801 -0.543154,-3.15888 0,-1.65325 0.512979,-2.98174 0.51298,-1.32851 1.448411,-2.2437 0.935431,-0.94471 2.172615,-1.41707 1.267359,-0.50187 2.77612,-0.50187 0.935431,0 1.810512,0.14761 0.875082,0.11808 1.90104,0.59044 l -0.362104,1.21041 q -0.81473,-0.41332 -1.569111,-0.56092 -0.724204,-0.14761 -1.50876,-0.14761 -1.237183,0 -2.263141,0.41332 -1.025958,0.4133 -1.750163,1.18088 -0.724204,0.73805 -1.146658,1.83038 -0.392278,1.06281 -0.392278,2.39131 0,1.77133 0.482804,2.95223 0.482803,1.15136 1.237184,1.8599 0.784555,0.70853 1.750162,1.00376 0.995782,0.29522 2.02174,0.29522 z m 8.509411,0.88566 H 53.81638 v -20.96081 h 1.569111 v 8.94525 q 0.995782,-0.88567 2.202791,-1.44659 1.207008,-0.59044 2.655419,-0.59044 1.176833,0 2.051914,0.35426 0.875082,0.32474 1.418235,0.94471 0.57333,0.59044 0.844907,1.41708 0.301752,0.79709 0.301752,1.77133 v 9.56521 h -1.569111 v -9.09286 q 0,-2.03703 -0.935433,-2.86366 -0.935431,-0.85614 -2.474367,-0.85614 -1.086308,0 -2.263141,0.59045 -1.176833,0.56091 -2.232966,1.53515 z m 15.630742,0 h -1.569112 v -13.87546 h 1.146658 l 0.241402,1.91894 q 1.025958,-0.94471 2.202791,-1.50563 1.207009,-0.59044 2.715769,-0.59044 2.172615,0 3.379625,1.18089 1.237183,1.18088 1.237183,3.30649 v 9.56521 h -1.569111 v -9.18142 q 0,-0.76758 -0.181051,-1.41707 -0.150876,-0.67901 -0.573329,-1.15137 -0.392279,-0.50188 -1.086308,-0.76759 -0.663854,-0.29521 -1.659638,-0.29521 -1.146658,0 -2.293316,0.59045 -1.116482,0.56091 -1.991563,1.53515 z m 25.558408,-7.08534 q 0,1.74181 -0.482803,3.12936 -0.482805,1.35803 -1.357887,2.30273 -0.844907,0.9152 -1.991565,1.41708 -1.146657,0.47236 -2.504543,0.47236 -1.327709,0 -2.504543,-0.44284 -1.146658,-0.47236 -1.991564,-1.35802 -0.844905,-0.88568 -1.327709,-2.18466 -0.482804,-1.3285 -0.482804,-3.04079 0,-1.74181 0.482804,-3.09983 0.51298,-1.35803 1.388061,-2.27323 0.87508,-0.94471 2.051914,-1.41706 1.176833,-0.47235 2.504542,-0.47235 1.32771,0 2.474368,0.44282 1.146658,0.44283 1.96139,1.32851 0.844907,0.88567 1.297536,2.18466 0.482803,1.29897 0.482803,3.01126 z m -1.629463,0.14761 q 0,-1.53515 -0.392278,-2.62748 -0.392279,-1.12185 -1.056133,-1.83038 -0.63368,-0.73806 -1.478586,-1.0628 -0.844905,-0.35427 -1.750162,-0.35427 -0.905256,0 -1.750162,0.35427 -0.844907,0.32474 -1.508761,1.0628 -0.663855,0.70853 -1.056133,1.83038 -0.392278,1.09233 -0.392278,2.62748 0,1.62373 0.392278,2.74557 0.422453,1.12185 1.086308,1.83038 0.663854,0.70853 1.508761,1.03328 0.875081,0.32474 1.780337,0.32474 0.905257,0 1.719988,-0.29522 0.844905,-0.32474 1.478585,-1.03327 0.663854,-0.70854 1.025958,-1.83039 0.392278,-1.15136 0.392278,-2.77509 z m 5.310852,6.93773 v -20.96081 h 1.56911 v 20.96081 z m 17.89388,-7.08534 q 0,1.74181 -0.48279,3.12936 -0.4828,1.35803 -1.35788,2.30273 -0.84492,0.9152 -1.99158,1.41708 -1.14665,0.47236 -2.50454,0.47236 -1.32771,0 -2.50454,-0.44284 -1.14666,-0.47236 -1.99156,-1.35802 -0.84491,-0.88568 -1.32771,-2.18466 -0.48281,-1.3285 -0.48281,-3.04079 0,-1.74181 0.48281,-3.09983 0.51298,-1.35803 1.38806,-2.27323 0.87508,-0.94471 2.05191,-1.41706 1.17684,-0.47235 2.50455,-0.47235 1.3277,0 2.47437,0.44282 1.14665,0.44283 1.96138,1.32851 0.84491,0.88567 1.29754,2.18466 0.48279,1.29897 0.48279,3.01126 z m -1.62946,0.14761 q 0,-1.53515 -0.39227,-2.62748 -0.39228,-1.12185 -1.05613,-1.83038 -0.63368,-0.73806 -1.47858,-1.0628 -0.84491,-0.35427 -1.75017,-0.35427 -0.90525,0 -1.75016,0.35427 -0.84491,0.32474 -1.50876,1.0628 -0.66386,0.70853 -1.05614,1.83038 -0.39228,1.09233 -0.39228,2.62748 0,1.62373 0.39228,2.74557 0.42246,1.12185 1.0863,1.83038 0.66387,0.70853 1.50877,1.03328 0.87508,0.32474 1.78033,0.32474 0.90527,0 1.72,-0.29522 0.8449,-0.32474 1.47858,-1.03327 0.66386,-0.70854 1.02596,-1.83039 0.39227,-1.15136 0.39227,-2.77509 z m 4.46595,-2.33226 q 0,-1.15136 0.39228,-2.03704 0.42245,-0.91518 1.17683,-1.50563 0.75438,-0.61997 1.78034,-0.91519 1.05613,-0.32474 2.29332,-0.32474 0.54315,0 0.93543,0.059 0.42244,0.059 0.81473,0.11809 h 5.88416 v 1.18089 h -1.75016 l -2.62524,-0.17713 q 0.93543,0.50187 1.50876,1.47611 0.57333,0.97424 0.57333,2.09609 0,1.15136 -0.42245,2.06655 -0.39228,0.88567 -1.14667,1.50564 -0.72421,0.61997 -1.71998,0.94471 -0.99579,0.29522 -2.17262,0.29522 -0.42246,0 -0.8449,-0.0294 -0.39228,-0.0296 -0.8449,-0.11809 -0.72421,0.2657 -1.17684,0.82662 -0.45262,0.5314 -0.45262,1.12185 0,0.76758 0.57332,1.12184 0.60351,0.32475 1.50876,0.32475 h 3.68138 q 2.35366,0 3.56067,0.97424 1.20701,0.97424 1.20701,2.50938 0,1.03329 -0.4828,1.85991 -0.48281,0.85615 -1.38806,1.44659 -0.90526,0.59044 -2.2028,0.91519 -1.29753,0.32474 -2.92699,0.32474 -2.95717,0 -4.70733,-1.15136 -1.75017,-1.12185 -1.75017,-3.09983 0,-1.09233 0.63368,-1.85991 0.66386,-0.73806 1.87086,-1.15137 -0.45261,-0.23618 -0.81473,-0.76758 -0.33192,-0.56092 -0.33192,-1.26945 0,-0.97423 0.57332,-1.5942 0.57333,-0.64949 1.32771,-1.00377 -0.48279,-0.20666 -0.93542,-0.59045 -0.45263,-0.38378 -0.81473,-0.91518 -0.36211,-0.53141 -0.57334,-1.1809 -0.21122,-0.67901 -0.21122,-1.47612 z m 2.92699,9.26999 q -0.87507,0.29523 -1.4484,0.9152 -0.54316,0.61997 -0.54316,1.44659 0,1.5942 1.32771,2.3913 1.35788,0.79711 3.50033,0.79711 1.41823,0 2.41402,-0.29523 1.02595,-0.26571 1.65963,-0.73805 0.66385,-0.44284 0.9656,-1.03329 0.30176,-0.56092 0.30176,-1.15136 0,-0.70854 -0.30176,-1.18089 -0.27157,-0.44284 -0.81473,-0.70853 -0.51298,-0.23619 -1.23717,-0.35427 -0.69404,-0.0886 -1.53895,-0.0886 z m 6.42733,-9.21095 q 0,-1.7418 -1.02596,-2.657 -1.02597,-0.94471 -2.68559,-0.94471 -0.84492,0 -1.56911,0.23617 -0.72421,0.20666 -1.26736,0.64949 -0.54316,0.41331 -0.87509,1.0628 -0.30175,0.64949 -0.30175,1.53517 0,1.83038 1.11649,2.71605 1.11648,0.88567 2.77611,0.88567 1.65964,0 2.74595,-0.85615 1.08631,-0.85615 1.08631,-2.62749 z m 5.61263,-4.66451 h 1.62945 l 3.68138,9.21095 1.08631,3.12937 h 0.0603 l 0.93543,-3.12937 3.31928,-9.21095 h 1.50875 l -5.46171,15.05636 q -0.81473,2.24369 -2.08208,3.60172 -1.26737,1.35802 -3.04771,2.03704 l -0.63368,-1.12185 q 1.53894,-0.61997 2.62526,-1.71229 1.0863,-1.09234 1.8105,-3.18842 l 0.27158,-0.7971 z m 28.36467,1.18089 h -4.76768 v 9.09285 q 0,1.38756 0.63367,1.88943 0.63368,0.47236 1.75017,0.47236 0.87508,0 1.62945,-0.14761 0.75439,-0.17713 1.26736,-0.35426 l 0.24141,1.15136 q -0.6035,0.23618 -1.47858,0.41331 -0.8751,0.17713 -1.93121,0.17713 -1.81052,0 -2.74596,-0.82662 -0.93543,-0.85614 -0.93543,-2.56844 v -9.29951 h -2.56489 v -1.18089 h 2.56489 v -4.42834 h 1.56912 v 4.42834 h 4.76768 z m 5.28066,12.69457 h -1.56911 v -20.96081 h 1.56911 v 8.94525 q 0.99578,-0.88567 2.2028,-1.44659 1.20699,-0.59044 2.65541,-0.59044 1.17684,0 2.05192,0.35426 0.87507,0.32474 1.41822,0.94471 0.57334,0.59044 0.84492,1.41708 0.30175,0.79709 0.30175,1.77133 v 9.56521 h -1.56912 v -9.09286 q 0,-2.03703 -0.93542,-2.86366 -0.93543,-0.85614 -2.47437,-0.85614 -1.08632,0 -2.26314,0.59045 -1.17684,0.56091 -2.23297,1.53515 z m 13.72969,-12.66505 q 1.41824,-0.73806 2.59507,-1.0628 1.20702,-0.32474 2.5649,-0.32474 0.9656,0 1.81051,0.26569 0.87508,0.26571 1.50876,0.85615 0.66385,0.59044 1.02596,1.56468 0.39228,0.94472 0.39228,2.33226 v 9.03381 h -1.08631 l -0.33193,-1.83037 h -0.0603 q -0.87509,1.03327 -2.05192,1.56467 -1.17683,0.50189 -2.62525,0.50189 -0.99578,0 -1.84068,-0.26571 -0.84491,-0.29522 -1.47859,-0.82662 -0.6035,-0.5314 -0.96561,-1.26946 -0.33192,-0.76758 -0.33192,-1.68277 0,-1.09232 0.45262,-1.91894 0.45263,-0.82662 1.26737,-1.35803 0.81472,-0.56093 1.93121,-0.82663 1.14665,-0.26569 2.53471,-0.26569 h 3.01753 v -0.9152 q 0,-2.00751 -0.90526,-2.86366 -0.90525,-0.85614 -2.35367,-0.85614 -0.87508,0 -2.02174,0.2657 -1.14665,0.2657 -2.44419,0.97424 z m 8.32836,5.6978 -2.50454,0.0294 q -1.35789,0.0294 -2.32348,0.29522 -0.96562,0.23618 -1.59929,0.64949 -0.6035,0.38379 -0.8751,0.94472 -0.27156,0.5314 -0.27156,1.15136 0,0.76759 0.27156,1.32851 0.2716,0.5314 0.72422,0.88567 0.45262,0.35426 1.05613,0.53139 0.63367,0.14761 1.32772,0.14761 0.54315,0 1.11647,-0.11808 0.57333,-0.14761 1.11649,-0.41331 0.57333,-0.29522 1.0863,-0.70854 0.51298,-0.44283 0.87508,-1.0628 z m 13.42794,-5.72732 h -4.76768 v 9.09285 q 0,1.38756 0.63368,1.88943 0.63369,0.47236 1.75016,0.47236 0.87509,0 1.62947,-0.14761 0.75437,-0.17713 1.26735,-0.35426 l 0.2414,1.15136 q -0.6035,0.23618 -1.47858,0.41331 -0.87509,0.17713 -1.93121,0.17713 -1.81052,0 -2.74594,-0.82662 -0.93544,-0.85614 -0.93544,-2.56844 v -9.29951 h -2.56489 v -1.18089 h 2.56489 v -4.42834 h 1.56911 v 4.42834 h 4.76768 z m 7.96622,-1.18089 h 1.56912 l 2.47436,8.73859 0.87508,3.83789 h 0.0605 l 0.99578,-3.83789 2.74593,-8.73859 h 1.65964 l 2.65542,8.73859 1.02597,3.83789 h 0.0602 l 0.99579,-3.83789 2.44419,-8.73859 h 1.50876 l -4.01331,13.87546 h -1.81051 l -2.71577,-9.09286 -0.99578,-3.7198 -1.02595,3.7198 -2.77612,9.09286 h -1.65964 z m 33.31343,6.79012 q 0,1.74181 -0.48281,3.12936 -0.4828,1.35803 -1.35788,2.30273 -0.84491,0.9152 -1.99157,1.41708 -1.14666,0.47236 -2.50454,0.47236 -1.32771,0 -2.50454,-0.44284 -1.14666,-0.47236 -1.99157,-1.35802 -0.8449,-0.88568 -1.32771,-2.18466 -0.48281,-1.3285 -0.48281,-3.04079 0,-1.74181 0.48281,-3.09983 0.51299,-1.35803 1.38807,-2.27323 0.87507,-0.94471 2.0519,-1.41706 1.17684,-0.47235 2.50455,-0.47235 1.3277,0 2.47437,0.44282 1.14666,0.44283 1.96139,1.32851 0.84491,0.88567 1.29753,2.18466 0.48281,1.29897 0.48281,3.01126 z m -1.62947,0.14761 q 0,-1.53515 -0.39228,-2.62748 -0.39228,-1.12185 -1.05613,-1.83038 -0.63367,-0.73806 -1.47858,-1.0628 -0.84491,-0.35427 -1.75017,-0.35427 -0.90525,0 -1.75015,0.35427 -0.84491,0.32474 -1.50877,1.0628 -0.66385,0.70853 -1.05613,1.83038 -0.39228,1.09233 -0.39228,2.62748 0,1.62373 0.39228,2.74557 0.42245,1.12185 1.08631,1.83038 0.66385,0.70853 1.50875,1.03328 0.87509,0.32474 1.78034,0.32474 0.90526,0 1.72,-0.29522 0.8449,-0.32474 1.47858,-1.03327 0.66386,-0.70854 1.02595,-1.83039 0.39228,-1.15136 0.39228,-2.77509 z m 5.1298,6.93773 v -13.87546 h 1.02596 l 0.3621,2.77509 q 0.51297,-1.3285 1.75016,-2.1256 1.23719,-0.82662 2.77612,-0.82662 0.72421,0 1.26736,0.11808 0.54315,0.11808 0.8449,0.26571 l -0.30175,1.35801 q -0.3621,-0.1476 -0.81473,-0.2657 -0.45262,-0.11808 -1.05613,-0.11808 -0.87508,0 -1.65964,0.29523 -0.75437,0.29521 -1.35789,0.91518 -0.57332,0.61996 -0.93543,1.56468 -0.33191,0.91519 -0.33191,2.18465 v 7.73483 z m 12.43219,-5.07783 v 5.07783 h -1.56911 v -20.96081 h 1.56911 v 14.11165 l 7.12135,-7.0263 h 1.96139 l -5.97469,5.84541 6.24627,8.03005 h -1.87087 l -5.40136,-7.11487 z m 19.07075,-7.05582 q -1.50876,-0.67901 -3.2891,-0.67901 -1.62946,0 -2.44419,0.67901 -0.81473,0.64949 -0.81473,1.68277 0,1.03327 0.69403,1.59421 0.69402,0.5314 2.4442,1.03328 l 0.90525,0.26569 q 1.71998,0.50188 2.62525,1.47612 0.90525,0.97424 0.90525,2.3913 0,0.82663 -0.33193,1.56468 -0.33193,0.70854 -0.9656,1.23994 -0.63368,0.5314 -1.59929,0.82662 -0.93543,0.29523 -2.17261,0.29523 -1.35789,0 -2.38385,-0.23619 -1.02595,-0.20665 -1.81051,-0.56091 l 0.42245,-1.21042 q 0.78456,0.38379 1.62946,0.59045 0.84492,0.17712 1.99157,0.17712 1.71998,0 2.65542,-0.64949 0.93543,-0.64949 0.93543,-1.85989 0,-0.94471 -0.69403,-1.62373 -0.66386,-0.70854 -2.38385,-1.23993 l -0.9656,-0.29523 q -3.5305,-1.09233 -3.5305,-3.63123 0,-0.82663 0.33193,-1.50564 0.3621,-0.70855 0.9656,-1.1809 0.63369,-0.50188 1.47859,-0.76758 0.87508,-0.29521 1.93122,-0.29521 0.9656,0 1.99156,0.14761 1.02596,0.1476 1.87086,0.56092 z"
     id="text2"
     style="font-weight:100;font-size:32px;fill:#7f7f7f;stroke:#7f7f7f;stroke-width:1"
     aria-label="Technology that works" />
</svg>
