<?xml version="1.0" encoding="UTF-8" standalone="no"?>
<svg
   fill="none"
   height="210"
   viewBox="0 0 210 210"
   width="210"
   version="1.1"
   id="svg2"
   sodipodi:docname="facebook .svg"
   inkscape:version="1.3.1 (91b66b0, 2023-11-16)"
   xmlns:inkscape="http://www.inkscape.org/namespaces/inkscape"
   xmlns:sodipodi="http://sodipodi.sourceforge.net/DTD/sodipodi-0.dtd"
   xmlns="http://www.w3.org/2000/svg"
   xmlns:svg="http://www.w3.org/2000/svg">
  <defs
     id="defs2" />
  <sodipodi:namedview
     id="namedview2"
     pagecolor="#ffffff"
     bordercolor="#000000"
     borderopacity="0.25"
     inkscape:showpageshadow="2"
     inkscape:pageopacity="0.0"
     inkscape:pagecheckerboard="0"
     inkscape:deskcolor="#d1d1d1"
     inkscape:zoom="1.8721368"
     inkscape:cx="94.2773"
     inkscape:cy="142.61779"
     inkscape:window-width="1920"
     inkscape:window-height="953"
     inkscape:window-x="0"
     inkscape:window-y="25"
     inkscape:window-maximized="1"
     inkscape:current-layer="svg2" />
  <g
     stroke="#17191c"
     stroke-linecap="round"
     stroke-width="0.150376"
     id="g2"
     transform="matrix(9.95,0,0,10.000023,-13.9,-14.000047)"
     style="stroke-width:0.90225744;stroke-dasharray:none">
    <path
       d="m 14,9.3 v 2.9 h 2.6 c 0.2,0 0.3,0.2 0.3,0.4 l -0.4,1.9 c 0,0.1 -0.2,0.2 -0.3,0.2 H 14 V 22 H 11 V 14.8 H 9.3 C 9.1,14.8 9,14.7 9,14.5 V 12.6 C 9,12.4 9.1,12.3 9.3,12.3 H 11 V 9 c 0,-1.7 1.3,-3 3,-3 h 2.7 C 16.9,6 17,6.1 17,6.3 V 8.7 C 17,8.9 16.9,9 16.7,9 H 14.3 C 14.1,9 14,9.1 14,9.3 Z"
       stroke-miterlimit="10"
       id="path1"
       style="stroke-width:0.90225744;stroke-dasharray:none" />
    <path
       d="M 15,22 H 9 C 4,22 2,20 2,15 V 9 C 2,4 4,2 9,2 h 6 c 5,0 7,2 7,7 v 6 c 0,5 -2,7 -7,7 z"
       stroke-linejoin="round"
       id="path2"
       style="stroke-width:0.90225744;stroke-dasharray:none" />
  </g>
</svg>
