<?xml version="1.0" encoding="UTF-8" standalone="no"?>
<svg
   width="210"
   height="210"
   viewBox="0 0 210 210"
   version="1.1"
   id="svg158"
   sodipodi:docname="social-icons-ins.svg"
   inkscape:export-filename="social-icons.png"
   inkscape:export-xdpi="96"
   inkscape:export-ydpi="96"
   inkscape:version="1.3.1 (91b66b0, 2023-11-16)"
   xmlns:inkscape="http://www.inkscape.org/namespaces/inkscape"
   xmlns:sodipodi="http://sodipodi.sourceforge.net/DTD/sodipodi-0.dtd"
   xmlns:xlink="http://www.w3.org/1999/xlink"
   xmlns="http://www.w3.org/2000/svg"
   xmlns:svg="http://www.w3.org/2000/svg"
   xmlns:rdf="http://www.w3.org/1999/02/22-rdf-syntax-ns#"
   xmlns:cc="http://creativecommons.org/ns#"
   xmlns:dc="http://purl.org/dc/elements/1.1/">
  <sodipodi:namedview
     id="namedview158"
     pagecolor="#ffffff"
     bordercolor="#000000"
     borderopacity="0.25"
     inkscape:showpageshadow="2"
     inkscape:pageopacity="0.0"
     inkscape:pagecheckerboard="0"
     inkscape:deskcolor="#d1d1d1"
     inkscape:zoom="2.9148304"
     inkscape:cx="133.28391"
     inkscape:cy="115.44411"
     inkscape:window-width="1920"
     inkscape:window-height="954"
     inkscape:window-x="0"
     inkscape:window-y="25"
     inkscape:window-maximized="1"
     inkscape:current-layer="svg158" />
  <!-- Generator: Sketch 3.8.3 (29802) - http://www.bohemiancoding.com/sketch -->
  <title
     id="title1">social-icons</title>
  <desc
     id="desc1">Created with Sketch.</desc>
  <defs
     id="defs80">
    <circle
       id="path-7"
       cx="22"
       cy="22"
       r="22" />
    <mask
       id="mask-8"
       maskContentUnits="userSpaceOnUse"
       maskUnits="objectBoundingBox"
       x="0"
       y="0"
       width="44"
       height="44"
       fill="#ffffff">
      <use
         xlink:href="#path-7"
         id="use4" />
    </mask>
  </defs>
  <use
     id="use83"
     stroke="#000000"
     mask="url(#mask-8)"
     stroke-width="0.879998"
     xlink:href="#path-7"
     transform="matrix(4.5454545,0,0,4.5454545,5,5)"
     style="fill:none;fill-rule:evenodd;stroke-width:3.30000003;stroke-dasharray:none;stroke:#000000;stroke-opacity:1" />
  <path
     d="m 104.9999,64.00919 c 13.35064,0 14.9319,0.0508 20.20419,0.29136 4.87495,0.222518 7.52241,1.037032 9.28448,1.721576 2.33367,0.907029 3.99948,1.990706 5.74903,3.740265 1.74956,1.749558 2.83324,3.415363 3.74007,5.749036 0.68474,1.762065 1.49928,4.409528 1.72177,9.284279 0.24056,5.272495 0.29136,6.853749 0.29136,20.204394 0,13.35064 -0.0508,14.93189 -0.29136,20.20419 -0.22252,4.87495 -1.03703,7.52241 -1.72177,9.28448 -0.90683,2.33367 -1.99051,3.99947 -3.74007,5.74903 -1.74955,1.74956 -3.41536,2.83323 -5.74903,3.74007 -1.76207,0.68474 -4.40953,1.49928 -9.28448,1.72177 -5.27151,0.24056 -6.85275,0.29136 -20.20419,0.29136 -13.351433,0 -14.932687,-0.0508 -20.20419,-0.29136 -4.874954,-0.22252 -7.522416,-1.03703 -9.284281,-1.72177 -2.33387,-0.90684 -3.999672,-1.99051 -5.749235,-3.74007 -1.749558,-1.74956 -2.833231,-3.41536 -3.740069,-5.74903 -0.684739,-1.76207 -1.499278,-4.40953 -1.721771,-9.28428 -0.240551,-5.2725 -0.291358,-6.85375 -0.291358,-20.20439 0,-13.350645 0.05081,-14.931899 0.291358,-20.204194 0.22252,-4.874951 1.037032,-7.522414 1.721771,-9.284479 0.906838,-2.333673 1.990511,-3.999478 3.740069,-5.749036 1.749563,-1.749559 3.415365,-2.833236 5.749235,-3.740265 1.761865,-0.684544 4.409327,-1.499085 9.284078,-1.721576 5.2725,-0.24056 6.853753,-0.29136 20.204393,-0.29136 m 0,-9.009188 c -13.579281,0 -15.281807,0.05754 -20.614837,0.300927 -5.322116,0.242975 -8.956596,1.088047 -12.137162,2.324151 -3.287944,1.277779 -6.07632,2.987449 -8.855972,5.767092 -2.779643,2.779647 -4.489314,5.568029 -5.767096,8.855968 -1.2361,3.180572 -2.081209,6.81505 -2.324141,12.137165 -0.243347,5.332809 -0.30069,7.035526 -0.30069,20.614815 0,13.57928 0.05734,15.282 0.30069,20.61484 0.242896,5.32211 1.088041,8.95659 2.324141,12.13716 1.277782,3.28774 2.987453,6.07632 5.767096,8.85597 2.779652,2.77965 5.568028,4.48931 8.855972,5.7671 3.180566,1.2361 6.815046,2.08121 12.137162,2.32414 5.333039,0.24334 7.035565,0.3007 20.614847,0.3007 13.57928,0 15.282,-0.0574 20.61483,-0.3007 5.32212,-0.24293 8.9566,-1.08804 12.13717,-2.32414 3.28794,-1.27779 6.07632,-2.98745 8.85596,-5.7671 2.77965,-2.77965 4.48932,-5.56803 5.7671,-8.85597 1.2361,-3.18057 2.08121,-6.81505 2.32415,-12.13716 0.24334,-5.33284 0.30087,-7.03557 0.30087,-20.61485 0,-13.579288 -0.0576,-15.282006 -0.30092,-20.614837 -0.24294,-5.322115 -1.08804,-8.956593 -2.32415,-12.137165 -1.27776,-3.287939 -2.98743,-6.07632 -5.76707,-8.855968 -2.77965,-2.779643 -5.56803,-4.489313 -8.85597,-5.767092 -3.18057,-1.236104 -6.81504,-2.081217 -12.13716,-2.324151 -5.33284,-0.243339 -7.03555,-0.300882 -20.61484,-0.300882 z m 0.0993,24.404765 c -14.190589,0 -25.694441,11.503854 -25.694441,25.694443 0,14.19058 11.503852,25.69444 25.694441,25.69444 14.19058,0 25.69444,-11.50386 25.69444,-25.69444 0,-14.190589 -11.50386,-25.694443 -25.69444,-25.694443 z m 0,42.373333 c -9.21139,0 -16.678897,-7.4675 -16.678897,-16.67889 0,-9.21139 7.467507,-16.678899 16.678897,-16.678899 9.21139,0 16.67889,7.467509 16.67889,16.678899 0,9.21139 -7.4675,16.67889 -16.67889,16.67889 z m 32.44047,-43.563914 c 0,3.287443 -2.66484,5.952483 -5.95228,5.952483 -3.28744,0 -5.95247,-2.66504 -5.95247,-5.952483 0,-3.287438 2.66503,-5.952282 5.95247,-5.952282 3.28744,0 5.95228,2.664844 5.95228,5.952282 z"
     id="path83"
     fill="#000000"
     style="fill-rule:evenodd;stroke:#000000;stroke-width:0.93042179;stroke-opacity:1;stroke-dasharray:none" />
  <metadata
     id="metadata158">
    <rdf:RDF>
      <cc:Work
         rdf:about="">
        <dc:title>social-icons</dc:title>
      </cc:Work>
    </rdf:RDF>
  </metadata>
</svg>
