<?xml version="1.0" encoding="UTF-8" standalone="no"?>
<!-- Generator: Adobe Illustrator 27.5.0, SVG Export Plug-In . SVG Version: 6.00 Build 0)  -->

<svg
   version="1.1"
   id="svg5"
   x="0px"
   y="0px"
   viewBox="0 0 209.99999 210.00001"
   xml:space="preserve"
   sodipodi:docname="twitter_x_new_logo1.svg"
   inkscape:version="1.3.1 (91b66b0, 2023-11-16)"
   inkscape:export-filename="twitter_x_new_logo.svg"
   inkscape:export-xdpi="96"
   inkscape:export-ydpi="96"
   width="210"
   height="210"
   xmlns:inkscape="http://www.inkscape.org/namespaces/inkscape"
   xmlns:sodipodi="http://sodipodi.sourceforge.net/DTD/sodipodi-0.dtd"
   xmlns="http://www.w3.org/2000/svg"
   xmlns:svg="http://www.w3.org/2000/svg"><defs
   id="defs1" /><sodipodi:namedview
   id="namedview1"
   pagecolor="#ffffff"
   bordercolor="#000000"
   borderopacity="0.25"
   inkscape:showpageshadow="2"
   inkscape:pageopacity="0.0"
   inkscape:pagecheckerboard="0"
   inkscape:deskcolor="#d1d1d1"
   inkscape:zoom="1.5859384"
   inkscape:cx="126.42357"
   inkscape:cy="197.35949"
   inkscape:window-width="1920"
   inkscape:window-height="967"
   inkscape:window-x="0"
   inkscape:window-y="25"
   inkscape:window-maximized="1"
   inkscape:current-layer="svg5" />
<style
   type="text/css"
   id="style1">
	.st0{fill:#1D1D1B;}
</style>
<g
   id="g1"
   inkscape:transform-center-x="3.6164389"
   inkscape:transform-center-y="1.4465683"
   transform="matrix(0.20255183,0,0,0.20255183,-63.705044,-18.07815)"
   style="stroke-width:4.93696">
	<path
   d="m 834.28,1105.93 c -66.86,0 -131.73,-13.1 -192.81,-38.93 C 582.48,1042.05 529.51,1006.34 484.03,960.85 438.55,915.36 402.83,862.39 377.88,803.41 352.05,742.33 338.95,677.46 338.95,610.6 c 0,-66.86 13.1,-131.73 38.93,-192.81 24.95,-58.99 60.66,-111.96 106.15,-157.44 45.49,-45.49 98.46,-81.2 157.44,-106.15 61.08,-25.83 125.95,-38.93 192.81,-38.93 66.86,0 131.73,13.1 192.81,38.93 58.99,24.95 111.96,60.66 157.44,106.15 45.49,45.49 81.2,98.46 106.15,157.44 25.83,61.08 38.93,125.95 38.93,192.81 0,66.86 -13.1,131.73 -38.93,192.81 -24.95,58.99 -60.66,111.96 -106.15,157.44 -45.49,45.48 -98.46,81.2 -157.44,106.15 -61.08,25.83 -125.95,38.93 -192.81,38.93 z m 0,-962.67 c -257.69,0 -467.33,209.64 -467.33,467.33 0,257.69 209.64,467.33 467.33,467.33 257.69,0 467.33,-209.65 467.33,-467.33 0,-257.68 -209.64,-467.33 -467.33,-467.33 z"
   id="path1"
   style="stroke-width:4.93696" />
</g>
<g
   id="layer1"
   transform="matrix(0.20255183,0,0,0.20255183,-53.093306,-23.153816)"
   inkscape:transform-center-x="3.6163967"
   inkscape:transform-center-y="1.445839"
   style="stroke-width:4.93696">
	<path
   id="path1009"
   class="st0"
   d="M 485.39,356.79 715.46,664.41 483.94,914.52 h 52.11 l 202.7,-218.98 163.77,218.98 h 177.32 L 836.82,589.6 1052.32,356.79 h -52.11 L 813.54,558.46 662.71,356.79 Z m 76.63,38.38 h 81.46 l 359.72,480.97 h -81.46 z"
   style="stroke-width:4.93696" />
</g>
</svg>
