<?xml version="1.0" encoding="UTF-8" standalone="no"?>
<svg
   height="210"
   viewBox="0 0 210 210"
   width="210"
   version="1.1"
   id="svg1"
   sodipodi:docname="whatsapp.svg"
   inkscape:version="1.3.1 (91b66b0, 2023-11-16)"
   xmlns:inkscape="http://www.inkscape.org/namespaces/inkscape"
   xmlns:sodipodi="http://sodipodi.sourceforge.net/DTD/sodipodi-0.dtd"
   xmlns="http://www.w3.org/2000/svg"
   xmlns:svg="http://www.w3.org/2000/svg">
  <defs
     id="defs1" />
  <sodipodi:namedview
     id="namedview1"
     pagecolor="#ffffff"
     bordercolor="#000000"
     borderopacity="0.25"
     inkscape:showpageshadow="2"
     inkscape:pageopacity="0.0"
     inkscape:pagecheckerboard="0"
     inkscape:deskcolor="#d1d1d1"
     inkscape:zoom="1.8532695"
     inkscape:cx="87.143289"
     inkscape:cy="127.61231"
     inkscape:window-width="1920"
     inkscape:window-height="954"
     inkscape:window-x="0"
     inkscape:window-y="25"
     inkscape:window-maximized="1"
     inkscape:current-layer="svg1" />
  <path
     clip-rule="evenodd"
     d="M 175.8853,34.085087 C 157.08049,15.3394 132.07396,5.0110464 105.43658,5 50.542047,5 5.8542591,49.483724 5.8320705,104.16325 c 0,17.47535 4.5819405,34.53094 13.2909555,49.5761 L 4.999999,205.116 57.797711,191.31909 c 14.555704,7.89815 30.930872,12.06263 47.594489,12.07368 h 0.0444 c 54.88344,0 99.57123,-44.48372 99.59341,-99.16325 0,-26.489187 -10.33987,-51.398747 -29.14469,-70.144433 M 104.93006,190.613 c -5.532984,0.032 -8.744401,-0.34237 -14.732888,-1.19448 -12.206659,-1.73697 -20.104608,-5.63323 -31.410952,-13.2262 l 0.08457,-0.0661 -37.190001,12.66634 10.07745,-39.3726 0.104452,-0.0129 c -8.287432,-13.12308 -13.692652,-29.32382 -13.692652,-44.89919 0.02219,-45.444762 41.980431,-87.932 87.644511,-87.932 22.11092,0.01105 45.64804,10.317525 61.27989,25.892904 15.62075,15.586425 25.60868,40.078912 25.59758,62.105366 0.74435,46.40295 -40.73017,87.84219 -87.79235,86.0391 m 45.21707,-65.75087 c -5.51081,-2.5623 -15.35931,-5.2054 -17.64474,-6.03388 -2.27432,-0.82848 -4.76212,-0.40244 -6.42627,2.07195 -1.66414,2.47438 -4.76518,6.99039 -6.21853,8.64734 -1.45336,1.65696 -2.92803,2.59676 -5.41315,1.35957 -2.48512,-1.23719 -9.95377,-6.34153 -19.461569,-14.78096 -7.399889,-6.57259 -16.518837,-13.34949 -17.972188,-15.83492 -1.453352,-2.485432 2.317503,-5.604185 3.571157,-6.841378 1.120523,-1.104637 2.774586,-0.739821 4.017146,-2.186895 1.24256,-1.447074 3.017278,-4.177706 3.84935,-5.834662 0.832071,-1.656955 0.421583,-3.104029 -0.210792,-4.341222 -0.62128,-1.24824 -7.422649,-11.549107 -9.497281,-16.508926 -2.008066,-4.80517 -2.20333,-3.94162 -3.734342,-4.007898 -1.442257,-0.06628 -3.254975,-0.05123 -4.908024,-0.05123 -1.664143,0 -4.62006,-0.458568 -6.905483,2.015819 -2.285423,2.485433 -8.337579,7.3954 -8.337579,19.59059 0,12.195191 8.919807,23.981672 10.162367,25.638622 1.24256,1.65696 17.551162,26.67698 42.513308,37.41405 5.94653,2.55171 10.58395,4.07611 14.18959,5.22493 5.95763,1.88893 11.38274,1.61277 15.67623,0.98313 4.78163,-0.70697 8.94106,-6.82801 11.01569,-12.61631 2.07463,-5.7883 1.77342,-6.82736 2.21533,-10.85598 0.11547,-1.05271 0.58537,-2.41248 -0.54238,-3.08905"
     fill-rule="evenodd"
     id="path1"
     style="fill:#000000;stroke:#000000;stroke-width:1;stroke-opacity:1"
     sodipodi:nodetypes="ccccccsscccsccccccccccccssscscsscccscsscccssc" />
</svg>
